<?xml version="1.0" encoding="utf-8"?>
<!-- Generator: Adobe Illustrator 22.1.0, SVG Export Plug-In . SVG Version: 6.00 Build 0)  -->
<svg version="1.1" id="Capa_1" xmlns="http://www.w3.org/2000/svg" xmlns:xlink="http://www.w3.org/1999/xlink" x="0px" y="0px"
	 viewBox="0 0 371.7 371.7" style="enable-background:new 0 0 371.7 371.7;" xml:space="preserve">
<g>
	<g>
		<g>
			<path d="M30.2,99.5C30.2,99.5,30.2,99.5,30.2,99.5c-4.4-1.1-9,1.3-10.4,5.6c-1.5,4.3,0.6,9,4.8,10.8l118.1,50.5l-41.7,12.7
				c-3,0.9-5.1,3.8-5,6.9c0.1,3.2,2.3,5.9,5.3,6.7l26.1,6.6c0.7,0.2,1.5,0.3,2.3,0.2l102-8.4l95.6,23.8c36.6,8.6,42.8-4.2,43.9-8.3
				c0.8-3.2,0.9-8.4-3.4-15c-4.3-6.7-12.2-13.4-24-20.6c-3.9-2.4-5.8-4.1-7.7-5.9c-6.8-6.4-12-10.1-46.4-18.8L101.3,99.1l-27-70.3
				c-1-2.6-3.3-4.6-6-5.3L56,20.5c-2.5-0.6-5.2-0.1-7.3,1.5c-2.1,1.6-3.4,4-3.5,6.6l-3.6,74L30.2,99.5z"/>
			<path d="M355.1,282.5H28.9c-9.2,0-16.6,7.4-16.6,16.6s7.4,16.6,16.6,16.6h326.1c9.2,0,16.6-7.4,16.6-16.6
				C371.7,289.9,364.2,282.5,355.1,282.5z"/>
		</g>
	</g>
</g>
</svg>
